<?xml version="1.0" standalone="no"?>
<!DOCTYPE svg PUBLIC "-//W3C//DTD SVG 20010904//EN"
 "http://www.w3.org/TR/2001/REC-SVG-20010904/DTD/svg10.dtd">
<svg version="1.0" xmlns="http://www.w3.org/2000/svg"
 width="2048.000000pt" height="2048.000000pt" viewBox="0 0 2048.000000 2048.000000"
 preserveAspectRatio="xMidYMid meet">

<defs>
  <!-- Gradiente das cores do site para os símbolos -->
  <linearGradient id="symbolsGradient" x1="0%" y1="0%" x2="100%" y2="100%">
    <stop offset="0%" style="stop-color:#2563eb;stop-opacity:1" />
    <stop offset="100%" style="stop-color:#f59e0b;stop-opacity:1" />
  </linearGradient>
</defs>

<g transform="translate(0.000000,2048.000000) scale(0.100000,-0.100000)"
fill="none" stroke="none">
<!-- Apenas os símbolos ST com gradiente das cores do site -->
<path d="M9925 16743 c-1165 -59 -2360 -461 -3310 -1112 -378 -259 -644 -480
-981 -816 -315 -314 -539 -582 -776 -930 -403 -592 -660 -1140 -887 -1890 -66
-219 -149 -618 -185 -895 -44 -329 -50 -439 -51 -860 0 -433 6 -535 56 -885
164 -1165 643 -2265 1378 -3170 411 -505 936 -987 1451 -1332 272 -181 629
-388 836 -484 38 -17 103 -47 144 -66 620 -285 1360 -477 2100 -545 217 -20
936 -17 1145 5 1138 118 2144 486 3070 1123 331 228 546 406 849 704 380 374
659 710 929 1118 380 576 680 1255 850 1927 126 499 175 826 198 1345 54 1163
-223 2335 -797 3381 -395 721 -967 1401 -1629 1940 -1154 938 -2618 1457
-4080 1447 -137 -1 -277 -3 -310 -5z m611 -1251 c-30 -59 -133 -287 -226 -502
-37 -85 -105 -238 -150 -340 -101 -228 -179 -405 -444 -1005 -114 -258 -233
-526 -263 -595 -110 -249 -246 -557 -283 -645 -21 -49 -97 -225 -168 -390
l-130 -300 754 -3 c415 -1 754 -5 754 -8 0 -3 -11 -20 -24 -37 -13 -18 -142
-196 -288 -397 -146 -201 -359 -493 -473 -650 -223 -305 -390 -535 -684 -940
-101 -140 -208 -286 -236 -325 -28 -38 -141 -191 -250 -340 -109 -148 -250
-340 -314 -425 -100 -135 -404 -551 -539 -737 -25 -35 -47 -61 -49 -59 -2 2
19 52 46 112 194 432 1196 2802 1188 2811 -2 2 -419 3 -926 3 -506 0 -921 3
-921 6 0 9 76 115 200 279 59 77 176 232 261 345 86 113 220 291 299 395 481
634 717 946 999 1319 174 230 408 540 521 690 113 149 324 429 470 621 145
193 316 418 380 502 63 83 166 218 227 300 251 331 285 374 290 370 2 -3 -7
-27 -21 -55z m2397 -2829 c-8 -21 -53 -124 -99 -229 -46 -106 -97 -227 -115
-270 -17 -44 -55 -135 -84 -204 -537 -1261 -915 -2170 -915 -2201 0 -5 389
-10 924 -11 l923 -3 -56 -75 c-31 -41 -115 -152 -187 -245 -71 -94 -195 -255
-274 -360 -79 -104 -212 -278 -295 -385 -83 -107 -380 -494 -660 -860 -280
-366 -577 -753 -660 -860 -151 -195 -228 -295 -641 -830 -121 -157 -314 -406
-429 -555 -115 -148 -258 -335 -319 -414 -61 -79 -121 -156 -134 -170 l-22
-26 19 45 c10 25 54 119 96 210 75 161 151 326 492 1080 91 201 187 412 213
470 26 58 147 328 268 600 121 272 266 596 322 720 114 250 300 670 300 676 0
2 -340 5 -755 6 l-756 3 129 180 c70 99 179 250 242 335 63 85 184 252 270
370 86 118 217 298 291 400 74 102 220 302 324 445 104 143 214 294 245 336
30 42 131 182 225 310 93 129 294 403 445 610 151 207 325 446 386 530 237
330 295 409 299 409 2 0 -3 -17 -12 -37z" 
fill="url(#symbolsGradient)"/>
</g>
</svg>
